<svg xmlns="http://www.w3.org/2000/svg" width="22" height="22" viewBox="0 0 22 22"><g fill="none" class="nc-icon-wrapper"><path d="M17.156 5.233l2.235 14.37L4.407 21.9 2 7.502l15.156-2.269z" fill="#000"/><path d="M18.182 0L20.4 14.509l-1.009 5.094-2.235-14.37L18.182 0z" fill="#000"/><path d="M15.547 17.315a1.056 1.056 0 0 0-.471-.306c-.2-.068-.44-.1-.724-.1-.267 0-.573.028-.917.086l-3.955.66c.042-.297.193-.689.46-1.166.298-.535.737-1.177 1.318-1.925l.457-.596c.075-.092.18-.226.317-.404.904-1.16 1.464-2.105 1.679-2.847a5.847 5.847 0 0 0 .236-1.619c0-.305-.026-.607-.078-.903a2.42 2.42 0 0 0-.206-.674.961.961 0 0 0-.35-.403c-.16-.096-.387-.137-.684-.138-.245 0-.538.03-.882.087l-4.57.764c-.554.093-.962.252-1.223.492a.942.942 0 0 0-.313.72c0 .073.007.15.02.228.065.38.267.659.593.8.193.085.426.126.697.126.185 0 .389-.02.61-.056l3.826-.63a1.965 1.965 0 0 1-.113.884c-.114.309-.398.751-.85 1.314-.197.238-.393.477-.588.717-1.032 1.222-1.77 2.264-2.218 3.13v.001a6.656 6.656 0 0 0-.659 1.762c-.07.338-.106.662-.106.972 0 .223.018.438.055.647.052.299.128.546.23.741a.98.98 0 0 0 .391.426c.15.08.368.11.67.112.383 0 .898-.056 1.55-.165l4.148-.693c.734-.123 1.245-.295 1.542-.533a.935.935 0 0 0 .359-.76 1.38 1.38 0 0 0-.023-.242c-.034-.2-.11-.371-.228-.51zm-3.515-3.752z" fill="#fff"/><path d="M2 7.502l.297-1.446.755-3.685L18.182 0l-1.026 5.233L2 7.502z" fill="#000"/></g></svg>